<?xml version="1.0" encoding="utf-8"?>
<!-- Generator: Adobe Illustrator 18.0.0, SVG Export Plug-In . SVG Version: 6.00 Build 0)  -->
<!DOCTYPE svg PUBLIC "-//W3C//DTD SVG 1.1//EN" "http://www.w3.org/Graphics/SVG/1.1/DTD/svg11.dtd">
<svg version="1.1" id="Layer_1" xmlns="http://www.w3.org/2000/svg" xmlns:xlink="http://www.w3.org/1999/xlink" x="0px" y="0px"
	 viewBox="0 0 100 100" enable-background="new 0 0 100 100" xml:space="preserve">
<g>
	<g>
		<ellipse fill="#FFFFFF" cx="50.5" cy="51" rx="43.3" ry="42.2"/>
		<path fill="#E4E4E4" d="M50.5,8.7c23.9,0,43.3,18.9,43.3,42.2S74.5,93.2,50.5,93.2S7.2,74.3,7.2,51S26.6,8.7,50.5,8.7 M50.5,7.4
			C25.9,7.4,5.9,27,5.9,51s20,43.5,44.6,43.5S95.2,75,95.2,51S75.1,7.4,50.5,7.4L50.5,7.4z"/>
	</g>
	<g>
		<path fill="#106584" d="M73.5,71H27.6V35.2c0-5.9,4.8-10.6,10.6-10.6h24.7c5.9,0,10.6,4.8,10.6,10.6V71z M31.2,67.4h38.7V35.2
			c0-3.9-3.1-7-7-7H38.2c-3.9,0-7,3.1-7,7V67.4z"/>
		<g>
			<circle fill="#DC5F58" cx="40.8" cy="62.4" r="2.3"/>
			<circle fill="#DC5F58" cx="60.3" cy="62.4" r="2.3"/>
		</g>
		<g>
			<path fill="#106584" d="M38.7,78h-2.6c-1.2,0-2.1-1-2.1-2.1v-3.2h6.9v3.2C40.8,77,39.8,78,38.7,78z"/>
			<path fill="#106584" d="M65,78h-2.6c-1.2,0-2.1-1-2.1-2.1v-3.2h6.9v3.2C67.1,77,66.1,78,65,78z"/>
		</g>
		<g>
			<path fill="#2F96CC" d="M64.7,55.9c0,0-8.9,2.7-14.2,2.7c-5.4,0-14.2-2.7-14.2-2.7V39.9c0-0.6,0.5-1.1,1.1-1.1h26.2
				c0.6,0,1.1,0.5,1.1,1.1V55.9z"/>
			<path fill="#F7F7F7" d="M61.3,54.2c-0.3,0-0.6-0.3-0.6-0.6c0-1.6-1.3-3-3-3s-3,1.3-3,3c0,0.3-0.3,0.6-0.6,0.6s-0.6-0.3-0.6-0.6
				c0-2.3,1.9-4.2,4.2-4.2s4.2,1.9,4.2,4.2C61.9,54,61.6,54.2,61.3,54.2z"/>
		</g>
		<g>
			<path fill="#106584" d="M53.6,62.1h-6.2c-0.3,0-0.6-0.3-0.6-0.6s0.3-0.6,0.6-0.6h6.2c0.3,0,0.6,0.3,0.6,0.6S53.9,62.1,53.6,62.1z
				"/>
			<path fill="#106584" d="M53.6,64h-6.2c-0.3,0-0.6-0.3-0.6-0.6s0.3-0.6,0.6-0.6h6.2c0.3,0,0.6,0.3,0.6,0.6S53.9,64,53.6,64z"/>
		</g>
		<g>
			<rect x="36.3" y="32.2" fill="#DC5F58" width="4.5" height="3.8"/>
			<rect x="42.3" y="32.2" fill="#B9B9B9" width="22.4" height="3.8"/>
		</g>
		<g>
			<path fill="#106584" d="M25.9,50.5h-1.5c-0.5,0-1-0.4-1-1v-7.5c0-0.5,0.4-1,1-1h1.5V50.5z"/>
			<path fill="#106584" d="M75.2,50.5h1.5c0.5,0,1-0.4,1-1v-7.5c0-0.5-0.4-1-1-1h-1.5V50.5z"/>
		</g>
	</g>
</g>
</svg>
