<?xml version="1.0" encoding="utf-8"?>
<!-- Generator: Adobe Illustrator 18.0.0, SVG Export Plug-In . SVG Version: 6.00 Build 0)  -->
<!DOCTYPE svg PUBLIC "-//W3C//DTD SVG 1.1//EN" "http://www.w3.org/Graphics/SVG/1.1/DTD/svg11.dtd">
<svg version="1.1" id="Layer_1" xmlns="http://www.w3.org/2000/svg" xmlns:xlink="http://www.w3.org/1999/xlink" x="0px" y="0px"
	 viewBox="0 0 150 200" enable-background="new 0 0 150 200" xml:space="preserve">
<g>
	<g>
		<circle fill="#28C7B5" cx="73.4" cy="126.4" r="48.2"/>
		<path fill="#FFFFFF" d="M73.4,78.2c26.6,0,48.2,21.6,48.2,48.2c0,26.6-21.6,48.2-48.2,48.2S25.2,153,25.2,126.4
			C25.2,99.8,46.8,78.2,73.4,78.2 M73.4,74.2c-28.8,0-52.2,23.4-52.2,52.2s23.4,52.2,52.2,52.2s52.2-23.4,52.2-52.2
			S102.1,74.2,73.4,74.2L73.4,74.2z"/>
	</g>
	<g>
		<path fill="#FFFFFF" d="M73.4,36.1c-18.6,0-33.7,15.1-33.7,33.7s33.7,59.7,33.7,59.7s33.7-41.1,33.7-59.7S92,36.1,73.4,36.1z
			 M73.4,75.4c-5.4,0-9.8-4.4-9.8-9.8c0-5.4,4.4-9.8,9.8-9.8c5.4,0,9.8,4.4,9.8,9.8C83.2,71,78.8,75.4,73.4,75.4z"/>
		<path fill="#106584" d="M73.4,132.8l-1.6-1.9c-1.4-1.7-34.2-41.9-34.2-61c0-19.7,16-35.7,35.7-35.7c19.7,0,35.7,16,35.7,35.7
			c0,19.1-32.8,59.3-34.2,61L73.4,132.8z M73.4,38.1c-17.5,0-31.7,14.2-31.7,31.7c0,7.2,5.7,19.6,16.5,35.7
			c6.2,9.2,12.4,17.3,15.2,20.8c6.6-8.3,31.7-41.1,31.7-56.5C105.1,52.4,90.9,38.1,73.4,38.1z M73.4,77.4c-6.5,0-11.8-5.3-11.8-11.8
			s5.3-11.8,11.8-11.8s11.8,5.3,11.8,11.8S79.9,77.4,73.4,77.4z M73.4,57.8c-4.3,0-7.8,3.5-7.8,7.8s3.5,7.8,7.8,7.8s7.8-3.5,7.8-7.8
			S77.7,57.8,73.4,57.8z"/>
	</g>
	<path fill="#DC5F58" d="M133.3,124.6c-0.8,0-1.5-0.6-1.5-1.4c-0.1-2.3-0.4-4.5-0.8-6.8c-0.1-0.8,0.4-1.6,1.2-1.7
		c0.8-0.1,1.6,0.4,1.7,1.2c0.4,2.3,0.7,4.7,0.8,7.1C134.8,123.8,134.2,124.5,133.3,124.6C133.4,124.6,133.3,124.6,133.3,124.6z
		 M130.9,110.8c-0.6,0-1.2-0.4-1.4-1.1c-0.6-2.2-1.4-4.3-2.3-6.4c-0.3-0.8,0-1.6,0.8-2c0.8-0.3,1.6,0,2,0.8c0.9,2.2,1.8,4.5,2.4,6.7
		c0.2,0.8-0.2,1.6-1,1.9C131.2,110.8,131.1,110.8,130.9,110.8z M125.4,98c-0.5,0-1-0.3-1.3-0.8c-1.1-2-2.4-3.9-3.7-5.7
		c-0.5-0.7-0.4-1.6,0.3-2.1c0.7-0.5,1.6-0.4,2.1,0.3c1.4,1.9,2.7,3.9,3.9,6c0.4,0.7,0.2,1.6-0.6,2C125.9,97.9,125.7,98,125.4,98z
		 M117.1,86.8c-0.4,0-0.8-0.2-1.1-0.5c-1.6-1.7-3.2-3.2-5-4.7c-0.6-0.5-0.7-1.5-0.2-2.1c0.5-0.6,1.5-0.7,2.1-0.2
		c1.8,1.5,3.6,3.2,5.2,4.9c0.6,0.6,0.5,1.6-0.1,2.1C117.9,86.6,117.5,86.8,117.1,86.8z M106.4,77.8c-0.3,0-0.6-0.1-0.8-0.2
		c-1.9-1.3-3.9-2.4-5.9-3.4c-0.7-0.4-1-1.3-0.7-2s1.3-1,2-0.7c2.1,1.1,4.2,2.3,6.2,3.6c0.7,0.5,0.9,1.4,0.4,2.1
		C107.4,77.5,106.9,77.8,106.4,77.8z M94,71.5c-0.2,0-0.3,0-0.5-0.1c-2.1-0.8-4.3-1.4-6.5-2c-0.8-0.2-1.3-1-1.1-1.8
		c0.2-0.8,1-1.3,1.8-1.1c2.3,0.5,4.6,1.2,6.9,2.1c0.8,0.3,1.2,1.1,0.9,1.9C95.1,71.1,94.6,71.5,94,71.5z M80.4,68.3
		c-0.1,0-0.1,0-0.2,0c-2.2-0.3-4.5-0.4-6.8-0.4c-0.8,0-1.5-0.7-1.5-1.5s0.7-1.5,1.5-1.5c2.4,0,4.8,0.1,7.2,0.4
		c0.8,0.1,1.4,0.8,1.3,1.7C81.8,67.7,81.1,68.3,80.4,68.3z"/>
	<path fill="#DC5F58" d="M72.7,189.8c-0.6,0-1.3,0-1.9,0c-0.8,0-1.5-0.7-1.5-1.5c0-0.8,0.7-1.5,1.5-1.5c2.3,0.1,4.6,0,6.8-0.2
		c0.8-0.1,1.6,0.5,1.6,1.4c0.1,0.8-0.5,1.6-1.4,1.6C76.2,189.7,74.4,189.8,72.7,189.8z M63.8,189.2c-0.1,0-0.1,0-0.2,0
		c-2.4-0.3-4.7-0.8-7-1.5c-0.8-0.2-1.3-1-1.1-1.8c0.2-0.8,1-1.3,1.8-1.1c2.2,0.6,4.4,1.1,6.7,1.4c0.8,0.1,1.4,0.9,1.3,1.7
		C65.2,188.6,64.6,189.2,63.8,189.2z M84.7,188.6c-0.7,0-1.3-0.5-1.5-1.2c-0.2-0.8,0.4-1.6,1.2-1.8c2.2-0.5,4.4-1,6.6-1.8
		c0.8-0.3,1.6,0.2,1.9,1c0.3,0.8-0.2,1.6-1,1.9c-2.3,0.7-4.6,1.4-6.9,1.8C84.9,188.6,84.8,188.6,84.7,188.6z M50.4,185.5
		c-0.2,0-0.4,0-0.6-0.1c-2.2-0.9-4.4-1.9-6.5-3.1c-0.7-0.4-1-1.3-0.6-2s1.3-1,2-0.6c2,1.1,4.1,2.1,6.2,2.9c0.8,0.3,1.1,1.2,0.8,2
		C51.5,185.2,50.9,185.5,50.4,185.5z M98,184.2c-0.6,0-1.1-0.3-1.4-0.9c-0.3-0.8,0-1.6,0.7-2c2.1-1,4.1-2,6-3.2
		c0.7-0.4,1.6-0.2,2.1,0.5c0.4,0.7,0.2,1.6-0.5,2.1c-2,1.3-4.2,2.4-6.3,3.4C98.4,184.2,98.2,184.2,98,184.2z M38.1,178.8
		c-0.3,0-0.6-0.1-0.9-0.3c-1.9-1.4-3.8-2.9-5.6-4.5c-0.6-0.6-0.7-1.5-0.1-2.1c0.6-0.6,1.5-0.7,2.1-0.1c1.7,1.5,3.5,3,5.3,4.3
		c0.7,0.5,0.8,1.4,0.4,2.1C39,178.6,38.6,178.8,38.1,178.8z M109.9,176.9c-0.4,0-0.9-0.2-1.2-0.6c-0.5-0.6-0.4-1.6,0.2-2.1
		c1.8-1.4,3.5-2.9,5.1-4.5c0.6-0.6,1.5-0.6,2.1,0s0.6,1.5,0,2.1c-1.7,1.7-3.5,3.3-5.4,4.8C110.5,176.8,110.2,176.9,109.9,176.9z
		 M27.7,169.5c-0.4,0-0.8-0.2-1.1-0.5c-1.6-1.8-3.1-3.7-4.4-5.6c-0.5-0.7-0.3-1.6,0.4-2.1s1.6-0.3,2.1,0.4c1.3,1.9,2.7,3.7,4.2,5.4
		c0.5,0.6,0.5,1.6-0.1,2.1C28.4,169.4,28,169.5,27.7,169.5z M19.7,158c-0.5,0-1.1-0.3-1.3-0.8c-1.1-2.1-2.1-4.3-3-6.5
		c-0.3-0.8,0.1-1.6,0.9-1.9c0.8-0.3,1.6,0.1,1.9,0.9c0.8,2.1,1.8,4.2,2.9,6.2c0.4,0.7,0.1,1.6-0.6,2C20.2,158,20,158,19.7,158z
		 M14.6,145c-0.7,0-1.3-0.4-1.5-1.1c-0.6-2.3-1.1-4.7-1.4-7c-0.1-0.8,0.5-1.6,1.3-1.7c0.8-0.1,1.6,0.5,1.7,1.3
		c0.3,2.2,0.8,4.5,1.3,6.7c0.2,0.8-0.3,1.6-1.1,1.8C14.9,145,14.8,145,14.6,145z M12.7,131.2c-0.8,0-1.5-0.6-1.5-1.5
		c0-0.5,0-1,0-1.4c0-1.9,0.1-3.8,0.3-5.7c0.1-0.8,0.8-1.4,1.6-1.4c0.8,0.1,1.4,0.8,1.4,1.6c-0.2,1.8-0.3,3.6-0.3,5.5
		c0,0.5,0,0.9,0,1.4C14.2,130.5,13.6,131.2,12.7,131.2C12.7,131.2,12.7,131.2,12.7,131.2z M14,117.3c-0.1,0-0.2,0-0.3,0
		c-0.8-0.2-1.3-1-1.2-1.8c0.5-2.3,1.1-4.7,1.9-6.9c0.3-0.8,1.1-1.2,1.9-0.9c0.8,0.3,1.2,1.1,0.9,1.9c-0.7,2.1-1.3,4.4-1.8,6.6
		C15.3,116.8,14.7,117.3,14,117.3z M18.5,104.1c-0.2,0-0.4,0-0.6-0.1c-0.7-0.4-1.1-1.2-0.7-2c1-2.2,2.2-4.3,3.5-6.3
		c0.4-0.7,1.4-0.9,2.1-0.5c0.7,0.4,0.9,1.4,0.5,2.1c-1.2,1.9-2.3,3.9-3.3,6C19.6,103.7,19,104.1,18.5,104.1z M25.9,92.2
		c-0.3,0-0.7-0.1-0.9-0.3c-0.6-0.5-0.7-1.5-0.2-2.1c1.4-1.7,2.9-3.4,4.5-5c0.6-0.6,1.5-0.6,2.1,0c0.6,0.6,0.6,1.5,0,2.1
		c-1.5,1.5-2.9,3.1-4.3,4.7C26.8,92,26.3,92.2,25.9,92.2z"/>
	<circle fill="#DC5F58" cx="133.4" cy="124.2" r="5.4"/>
	<circle fill="#DC5F58" cx="115.1" cy="171.3" r="5.4"/>
	<ellipse fill="#106584" cx="73.4" cy="138.4" rx="10" ry="3.1"/>
	<g>
		<path fill="#2F96CC" d="M15.6,54.1c-0.2,0.7-0.9,1-1.5,0.8l0,0c-0.7-0.2-1-0.9-0.8-1.6c0.2-0.7,0.9-1,1.5-0.8l0,0
			C15.5,52.7,15.9,53.4,15.6,54.1z M16.5,54.3c0.1-0.4,0.5-0.6,0.9-0.5l1,0.2c0.5,0.1,0.7,0.4,0.6,0.9c-0.2,1.2-0.1,1.9,0.6,2.1l0,0
			c0.6,0.2,1.1-0.1,1.4-0.9c0.2-0.6,0.2-1.1,0-1.8c-0.1-0.2-0.1-0.5,0-0.7c0.2-0.5,0.7-0.8,1.3-0.6c0.3,0.1,0.5,0.3,0.6,0.6
			c0.4,0.9,0.4,1.9,0,3.1c-0.6,2-2.1,2.9-3.9,2.4l0,0c-1.7-0.6-2-2-1.8-3.6l-0.2-0.1c-0.3-0.2-0.6-0.6-0.4-1L16.5,54.3z"/>
		<path fill="#2F96CC" d="M20.3,49.1L20.3,49.1c-2.5-1.4-3.5-4.4-2-7.1c0.7-1.3,1.6-2,2.5-2.4c0.3-0.1,0.6-0.1,1,0.1
			c0.5,0.3,0.7,0.9,0.4,1.5c-0.1,0.3-0.3,0.4-0.5,0.5C21,41.9,20.4,42.3,20,43c-0.8,1.5-0.2,3.2,1.3,4l0,0c1.5,0.8,3.3,0.5,4.2-1
			c0.5-0.8,0.5-1.5,0.4-2.3c0-0.2,0-0.5,0.1-0.7c0.3-0.5,0.9-0.7,1.4-0.4c0.3,0.2,0.5,0.4,0.5,0.7c0.2,1.2,0.1,2.3-0.6,3.7
			C25.8,49.7,22.8,50.5,20.3,49.1z"/>
		<path fill="#2F96CC" d="M25.2,30.6c-0.1-0.1-0.2-0.2-0.2-0.4l-0.4-1.4c-0.1-0.3-0.1-0.7,0.2-0.9c0.4-0.4,1.1-0.7,1.3-0.5
			c0.1,0.1,0.2,0.3,0.2,0.6l0,1.2c0,0.6-0.2,0.9-0.5,1.2C25.7,30.7,25.4,30.7,25.2,30.6z M26.7,38.3L26.7,38.3
			c-2.1-1.9-2.3-5.2-0.3-7.4c2.1-2.3,5.3-2.4,7.4-0.5l0,0c2.1,1.9,2.3,5.1,0.2,7.4C32,40.1,28.8,40.2,26.7,38.3z M32.3,32.1
			L32.3,32.1c-1.3-1.2-3.2-1.2-4.4,0.1c-1.2,1.3-1,3.2,0.3,4.3l0,0c1.3,1.2,3.2,1.2,4.4-0.1C33.8,35.1,33.5,33.3,32.3,32.1z"/>
		<path fill="#2F96CC" d="M35,24.3c-0.3-0.5-0.2-1.2,0.3-1.5l0.2-0.1c0.4-0.3,0.8-0.2,1.1-0.1l4.6,2.1l-0.2-5.1c0-0.4,0.1-0.8,0.5-1
			l0.2-0.1c0.5-0.3,1.2-0.2,1.5,0.3l4.4,6.6c0.3,0.5,0.2,1.2-0.3,1.5c-0.5,0.3-1.2,0.2-1.5-0.3l-2.7-4.2l0,3.5c0,0.4-0.1,0.7-0.5,1
			c-0.3,0.2-0.7,0.2-1.1,0l-3.2-1.4l2.7,4.1c0.3,0.5,0.2,1.2-0.3,1.5s-1.2,0.2-1.5-0.3L35,24.3z"/>
		<path fill="#2F96CC" d="M49.4,20.2L49.4,20.2c-0.9-2.7,0.4-5.6,3.3-6.6s5.8,0.5,6.7,3.1l0,0c0.9,2.7-0.4,5.6-3.4,6.6
			S50.3,22.8,49.4,20.2z M57.2,17.5L57.2,17.5c-0.6-1.6-2.2-2.6-3.9-2c-1.7,0.6-2.4,2.3-1.8,3.9l0,0c0.6,1.6,2.2,2.6,3.9,2
			C57.1,20.8,57.8,19.1,57.2,17.5z"/>
		<path fill="#2F96CC" d="M69.7,11.3c0-0.6,0.5-1.1,1.1-1.1c0.6,0,1.1,0.5,1.1,1.1l0.1,7l4.1-0.1c0.6,0,1,0.4,1,1c0,0.6-0.4,1-1,1
			L71,20.3c-0.6,0-1.1-0.5-1.1-1.1L69.7,11.3z"/>
		<path fill="#2F96CC" d="M81.6,11.7c0.1-0.6,0.7-1,1.3-0.9c0.6,0.1,1,0.7,0.9,1.3L82.5,19l4,0.7c0.5,0.1,0.9,0.6,0.8,1.2
			c-0.1,0.5-0.6,0.9-1.2,0.8L81,20.7c-0.6-0.1-1-0.7-0.9-1.3L81.6,11.7z"/>
		<path fill="#2F96CC" d="M90.2,21.7l2.9-7.2c0.2-0.6,0.9-0.8,1.4-0.6l5.1,2c0.5,0.2,0.8,0.8,0.5,1.3c-0.2,0.5-0.8,0.7-1.3,0.5
			L94.8,16l-0.8,1.9l3.5,1.4c0.5,0.2,0.8,0.8,0.5,1.3c-0.2,0.5-0.8,0.7-1.3,0.5l-3.5-1.4l-0.8,1.9l4.2,1.7c0.5,0.2,0.8,0.8,0.5,1.3
			c-0.2,0.5-0.8,0.7-1.3,0.5l-5.2-2.1C90.3,22.9,90,22.2,90.2,21.7z"/>
		<path fill="#2F96CC" d="M102.1,22.6L102.1,22.6c1.6-2.4,4.7-3.1,7.2-1.4c1.2,0.8,1.9,1.7,2.3,2.7c0.1,0.2,0.1,0.6-0.1,1
			c-0.3,0.5-1,0.6-1.5,0.3c-0.3-0.2-0.4-0.4-0.4-0.6c-0.3-0.7-0.6-1.3-1.4-1.8c-1.3-0.9-3.2-0.4-4.1,1l0,0c-1,1.5-0.7,3.3,0.7,4.3
			c0.7,0.4,1.4,0.7,2,0.7l0.8-1.2l-1.2-0.8c-0.4-0.3-0.6-0.9-0.3-1.3c0.3-0.4,0.9-0.5,1.3-0.3l2.1,1.4c0.5,0.3,0.6,1,0.3,1.5l-1.4,2
			c-0.4,0.5-0.8,0.8-1.4,0.7c-1,0-2.2-0.3-3.5-1.1C101,28,100.4,25,102.1,22.6z"/>
		<path fill="#2F96CC" d="M110.3,32.9l8.1-2.8c0.6-0.2,1.1-0.1,1.5,0.4l0.1,0.1c0.4,0.4,0.5,1,0.2,1.5l-3.4,7.9
			c-0.1,0.2-0.1,0.3-0.2,0.4c-0.4,0.4-1.1,0.4-1.5,0c-0.3-0.4-0.4-0.8-0.2-1.3l0.7-1.6l-3-3.2l-1.7,0.6c-0.4,0.2-0.9,0.1-1.2-0.3
			c-0.4-0.4-0.4-1.1,0.1-1.4C110,33,110.2,32.9,110.3,32.9z M116.6,35.5l1.5-3.3l-3.4,1.2L116.6,35.5z"/>
		<path fill="#2F96CC" d="M125.3,39c0.5-0.3,1.2-0.1,1.5,0.4l1.7,3c0.6,1.1,0.8,2.1,0.6,3c-0.2,0.8-0.7,1.4-1.5,1.9l0,0
			c-1.4,0.8-2.6,0.6-3.6-0.2l-0.8,2.3c-0.1,0.3-0.3,0.6-0.5,0.7c-0.5,0.3-1.1,0.1-1.4-0.4c-0.2-0.4-0.2-0.8,0-1.2l1.3-3.2l-0.9-1.5
			l-1.9,1.1c-0.5,0.3-1.2,0.1-1.5-0.4s-0.1-1.2,0.4-1.5L125.3,39z M124.2,44.7c0.5,0.9,1.3,1.2,2.1,0.7l0,0c0.8-0.5,0.9-1.3,0.4-2.2
			l-1.1-1.9l-2.5,1.4L124.2,44.7z"/>
		<path fill="#2F96CC" d="M125.9,55.1c0.2,0.7-0.1,1.3-0.7,1.6l0,0c-0.6,0.2-1.3-0.1-1.5-0.8c-0.2-0.7,0.1-1.3,0.7-1.6l0,0
			C125,54.1,125.7,54.4,125.9,55.1z M126.8,54.7c-0.1-0.4,0.1-0.8,0.4-1l0.9-0.5c0.4-0.2,0.8-0.1,1,0.3c0.6,1.1,1.1,1.5,1.8,1.3l0,0
			c0.6-0.2,0.8-0.8,0.5-1.6c-0.2-0.6-0.5-1-1.1-1.4c-0.2-0.1-0.3-0.3-0.4-0.5c-0.2-0.5,0.1-1.1,0.6-1.3c0.3-0.1,0.6-0.1,0.8,0.1
			c0.8,0.5,1.5,1.3,1.9,2.5c0.7,1.9,0.1,3.6-1.7,4.2l0,0c-1.7,0.6-2.8-0.4-3.6-1.7l-0.3,0c-0.4,0.1-0.8-0.1-0.9-0.5L126.8,54.7z"/>
	</g>
</g>
</svg>
