<?xml version="1.0" encoding="utf-8"?>
<!-- Generator: Adobe Illustrator 18.0.0, SVG Export Plug-In . SVG Version: 6.00 Build 0)  -->
<!DOCTYPE svg PUBLIC "-//W3C//DTD SVG 1.1//EN" "http://www.w3.org/Graphics/SVG/1.1/DTD/svg11.dtd">
<svg version="1.1" id="Layer_1" xmlns="http://www.w3.org/2000/svg" xmlns:xlink="http://www.w3.org/1999/xlink" x="0px" y="0px"
	 viewBox="0 0 200 200" enable-background="new 0 0 200 200" xml:space="preserve">
<g>
	
		<rect x="11.6" y="85.4" transform="matrix(-0.7071 0.7071 -0.7071 -0.7071 116.7345 128.2064)" fill="#DC5F58" width="40.4" height="5.7"/>
	<path fill="#DC5F58" stroke="#106580" stroke-width="3.8827" stroke-linecap="round" stroke-miterlimit="10" d="M17.5,107.7l2-2
		l29.4-29.4l2-2l2,2l26.7,26.7c17.4,17.4,17.1,44.9,0.1,62.3c-0.1,0.1-0.3,0.3-0.4,0.4c-8.3,8.3-19.4,13-31.2,13
		c-12,0.1-22.6-3.8-31.1-12.3c-4.3-4.3-7.6-9.3-9.8-14.9c-3.9-9.8-0.7-18.7,4.9-24.3c1.1-1.1,2.4-2.1,3.7-3c3.9-2.6,8.9-4.2,14-3.9
		l-10.5-10.5L17.5,107.7z"/>
	<path fill="#DC5F58" stroke="#106580" stroke-width="3.8827" stroke-linecap="round" stroke-miterlimit="10" d="M26.5,112.7
		L26.5,112.7c3.2-3.2,8.4-3.2,11.7,0l8.8,8.8c3.2,3.2,3.2,8.4,0,11.7l0,0c-3.2,3.2-8.4,3.2-11.7,0l-8.8-8.8
		C23.3,121.2,23.3,115.9,26.5,112.7z"/>
	
		<line fill="#FFFFFF" stroke="#106580" stroke-width="3.8827" stroke-linecap="round" stroke-miterlimit="10" x1="47" y1="133.2" x2="52.2" y2="138.5"/>
	<g>
		
			<rect x="9.6" y="79.8" transform="matrix(-0.7071 0.7071 -0.7071 -0.7071 111.8899 126.1997)" fill="none" stroke="#106580" stroke-width="3.8827" stroke-linecap="round" stroke-miterlimit="10" width="40.4" height="12.9"/>
		<g>
			
				<line fill="none" stroke="#106580" stroke-width="3.8827" stroke-linecap="round" stroke-miterlimit="10" x1="41.2" y1="83.9" x2="32.1" y2="74.8"/>
			
				<line fill="none" stroke="#106580" stroke-width="3.8827" stroke-linecap="round" stroke-miterlimit="10" x1="34.4" y1="90.8" x2="25.3" y2="81.7"/>
			
				<line fill="none" stroke="#106580" stroke-width="3.8827" stroke-linecap="round" stroke-miterlimit="10" x1="27.5" y1="97.7" x2="18.4" y2="88.6"/>
		</g>
	</g>
	<path fill="none" stroke="#106580" stroke-width="3.8827" stroke-linecap="round" stroke-miterlimit="10" d="M48.6,76.5
		c0,0,3.6-12-17.3-26.9S15.8,20.3,15.8,20.3"/>
	<path fill="none" stroke="#106580" stroke-width="3.8827" stroke-linecap="round" stroke-miterlimit="10" d="M28.7,33.8
		c0,0,29,21.7,20.2,40.3"/>
	<path fill="none" stroke="#FFFFFF" stroke-width="3.0914" stroke-linecap="round" stroke-miterlimit="10" d="M74.2,108.4
		c13.8,13.8,13.6,35.8,0.1,49.6c-0.1,0.1-0.2,0.2-0.3,0.3c-6.6,6.6-15.4,10.3-24.8,10.4"/>
	<path fill="none" stroke="#FFFFFF" stroke-width="3.0914" stroke-linecap="round" stroke-miterlimit="10" d="M18.2,133.7
		c0,0-9.1,12.2,3.4,23"/>
	
		<line fill="none" stroke="#FFFFFF" stroke-width="3.0914" stroke-linecap="round" stroke-miterlimit="10" x1="32.8" y1="122.3" x2="39.2" y2="128.8"/>
	
		<rect x="146" y="85.4" transform="matrix(0.7071 0.7071 -0.7071 0.7071 111.0978 -91.6544)" fill="#DC5F58" width="40.4" height="5.7"/>
	<path fill="#DC5F58" stroke="#106580" stroke-width="3.8827" stroke-linecap="round" stroke-miterlimit="10" d="M178.5,109.8
		l-10.5,10.5c5.1-0.2,10.1,1.3,14,3.9c1.3,0.9,2.5,1.9,3.7,3c5.6,5.6,8.9,14.5,4.9,24.3c-2.2,5.6-5.5,10.6-9.8,14.9
		c-8.5,8.5-19.1,12.4-31.1,12.3c-11.8-0.1-22.9-4.7-31.2-13c-0.1-0.1-0.3-0.3-0.4-0.4c-16.9-17.3-17.2-44.9,0.1-62.3L145,76.2l2-2
		l2,2l29.4,29.4l2,2L178.5,109.8z"/>
	<path fill="#DC5F58" stroke="#106580" stroke-width="3.8827" stroke-linecap="round" stroke-miterlimit="10" d="M171.5,112.7
		L171.5,112.7c-3.2-3.2-8.4-3.2-11.7,0l-8.8,8.8c-3.2,3.2-3.2,8.4,0,11.7l0,0c3.2,3.2,8.4,3.2,11.7,0l8.8-8.8
		C174.7,121.2,174.7,115.9,171.5,112.7z"/>
	
		<line fill="#FFFFFF" stroke="#106580" stroke-width="3.8827" stroke-linecap="round" stroke-miterlimit="10" x1="151" y1="133.2" x2="145.8" y2="138.5"/>
	<g>
		
			<rect x="148" y="79.8" transform="matrix(0.7071 0.7071 -0.7071 0.7071 110.2666 -93.661)" fill="none" stroke="#106580" stroke-width="3.8827" stroke-linecap="round" stroke-miterlimit="10" width="40.4" height="12.9"/>
		<g>
			
				<line fill="none" stroke="#106580" stroke-width="3.8827" stroke-linecap="round" stroke-miterlimit="10" x1="156.8" y1="83.9" x2="165.9" y2="74.8"/>
			
				<line fill="none" stroke="#106580" stroke-width="3.8827" stroke-linecap="round" stroke-miterlimit="10" x1="163.6" y1="90.8" x2="172.7" y2="81.7"/>
			
				<line fill="none" stroke="#106580" stroke-width="3.8827" stroke-linecap="round" stroke-miterlimit="10" x1="170.5" y1="97.7" x2="179.6" y2="88.6"/>
		</g>
	</g>
	<path fill="none" stroke="#106580" stroke-width="3.8827" stroke-linecap="round" stroke-miterlimit="10" d="M149.4,76.5
		c0,0-3.6-12,17.3-26.9s15.5-29.3,15.5-29.3"/>
	<path fill="none" stroke="#106580" stroke-width="3.8827" stroke-linecap="round" stroke-miterlimit="10" d="M169.3,33.8
		c0,0-29,21.7-20.2,40.3"/>
	<path fill="none" stroke="#FFFFFF" stroke-width="3.0914" stroke-linecap="round" stroke-miterlimit="10" d="M148.8,168.7
		c-9.4-0.1-18.2-3.7-24.8-10.4c-0.1-0.1-0.2-0.2-0.3-0.3c-13.5-13.8-13.7-35.7,0.1-49.6"/>
	<path fill="none" stroke="#FFFFFF" stroke-width="3.0914" stroke-linecap="round" stroke-miterlimit="10" d="M179.8,133.7
		c0,0,9.1,12.2-3.4,23"/>
	
		<line fill="none" stroke="#FFFFFF" stroke-width="3.0914" stroke-linecap="round" stroke-miterlimit="10" x1="165.2" y1="122.3" x2="158.8" y2="128.8"/>
	<polygon fill="#2F96CC" stroke="#106580" stroke-width="3" stroke-miterlimit="10" points="98.1,81.4 88.9,86.3 90.6,76 83.1,68.7 
		93.5,67.2 98.1,57.8 102.7,67.2 113.1,68.7 105.6,76 107.3,86.3 	"/>
	<g>
		<path fill="#106580" d="M63.2,64c-1.1,0-2-0.9-2-2v0c0-1.1,0.9-2,2-2s2,0.9,2,2S64.3,64,63.2,64z"/>
		<path fill="#106580" d="M64.1,56.2c-0.2,0-0.4,0-0.6-0.1c-1-0.3-1.6-1.3-1.4-2.4c0.2-1,1.2-1.7,2.2-1.6c1.1,0.1,1.9,1.1,1.7,2.2
			c0,0.1,0,0.2-0.1,0.3C65.8,55.7,65,56.2,64.1,56.2z M132.1,56.2c-0.9,0-1.7-0.6-1.9-1.5c-0.3-1.1,0.4-2.1,1.4-2.4
			c1.1-0.3,2.1,0.3,2.4,1.4c0,0,0,0.1,0,0.1c0.3,1.1-0.4,2.2-1.5,2.4C132.4,56.2,132.3,56.2,132.1,56.2z M66.7,48.9
			c-0.3,0-0.5-0.1-0.8-0.2c-1-0.4-1.5-1.6-1.1-2.6c0-0.1,0.1-0.1,0.1-0.2c0.5-1,1.8-1.3,2.7-0.7c0.9,0.5,1.3,1.7,0.8,2.6
			C68.1,48.4,67.4,48.9,66.7,48.9z M129.5,48.8c-0.8,0-1.5-0.4-1.8-1.1c-0.5-0.9-0.1-2.1,0.8-2.6c1-0.5,2.2-0.2,2.7,0.7
			c0.1,0.1,0.1,0.2,0.2,0.4c0.3,1-0.2,2.2-1.3,2.5C129.9,48.8,129.7,48.8,129.5,48.8z M70.8,42.3c-0.5,0-0.9-0.2-1.3-0.5
			c-0.8-0.7-1-1.9-0.3-2.8c0.6-0.8,1.8-1,2.7-0.4c0.9,0.6,1.2,1.9,0.6,2.8c0,0.1-0.1,0.1-0.1,0.2C72,42,71.4,42.3,70.8,42.3z
			 M125.4,42.2c-0.5,0-1-0.2-1.4-0.6c-0.1-0.1-0.2-0.2-0.3-0.3c-0.6-0.9-0.4-2.2,0.6-2.8c0.9-0.6,2-0.4,2.7,0.4
			c0.6,0.8,0.6,1.9-0.2,2.7C126.4,42,125.9,42.2,125.4,42.2z M76.3,36.7c-0.6,0-1.1-0.2-1.5-0.7c-0.7-0.8-0.6-2.1,0.3-2.8
			c0.1,0,0.1-0.1,0.2-0.1c0.9-0.6,2.2-0.4,2.8,0.6c0.6,0.9,0.4,2.1-0.4,2.7C77.2,36.6,76.8,36.7,76.3,36.7z M119.8,36.7
			c-0.4,0-0.8-0.1-1.1-0.3c-0.1,0-0.1-0.1-0.2-0.1c-0.8-0.7-1-2-0.3-2.8c0.7-0.8,1.9-1,2.8-0.3c0.8,0.6,1,1.8,0.4,2.7
			C121.1,36.4,120.5,36.7,119.8,36.7z M83,32.6c-0.8,0-1.5-0.5-1.8-1.2c-0.4-1,0-2.1,1-2.6c0.9-0.5,2.1-0.1,2.6,0.8
			c0.5,1,0.2,2.2-0.7,2.7c-0.1,0-0.1,0.1-0.2,0.1C83.5,32.5,83.2,32.6,83,32.6z M113.2,32.6c-0.3,0-0.6-0.1-0.9-0.2
			c-1-0.5-1.4-1.7-0.9-2.7c0.5-1,1.7-1.4,2.7-0.9l0,0c1,0.5,1.4,1.7,0.9,2.7C114.7,32.2,113.9,32.6,113.2,32.6z M90.3,30
			c-0.9,0-1.7-0.6-1.9-1.5c-0.3-1.1,0.3-2.2,1.4-2.5c0.1,0,0.2-0.1,0.3-0.1c1.1-0.1,2.1,0.6,2.2,1.7c0.1,1-0.6,2-1.6,2.2
			C90.6,30,90.5,30,90.3,30z M105.8,30c-0.1,0-0.2,0-0.3,0c-0.1,0-0.1,0-0.2,0c-1.1-0.3-1.7-1.4-1.5-2.4c0.3-1.1,1.3-1.7,2.4-1.5
			c1,0.2,1.7,1.2,1.5,2.3C107.7,29.3,106.8,30,105.8,30z M98.1,29.1c-1.1,0-2-0.9-2-2s0.9-2,2-2h0c1.1,0,2,0.9,2,2
			S99.2,29.1,98.1,29.1z"/>
		<path fill="#106580" d="M133,64c-1.1,0-2-0.9-2-2s0.9-2,2-2s2,0.9,2,2v0C135,63.1,134.1,64,133,64z"/>
	</g>
</g>
</svg>
