<?xml version="1.0" encoding="utf-8"?>
<!-- Generator: Adobe Illustrator 18.0.0, SVG Export Plug-In . SVG Version: 6.00 Build 0)  -->
<!DOCTYPE svg PUBLIC "-//W3C//DTD SVG 1.1//EN" "http://www.w3.org/Graphics/SVG/1.1/DTD/svg11.dtd">
<svg version="1.1" id="Layer_1" xmlns="http://www.w3.org/2000/svg" xmlns:xlink="http://www.w3.org/1999/xlink" x="0px" y="0px"
	 viewBox="0 0 400 180" enable-background="new 0 0 400 180" xml:space="preserve">
<g>
	<path fill="#E4E5E6" d="M97.3,76.2v9.7c0,2.3-1.3,4.4-3.4,5.4L62,107"/>
	<path fill="#2F96CC" d="M65.2,130.8v8.8l66.3,6.9c0.1,0,0.3-0.1,0.3-0.2l205.2-2.5v-12.9v-7.4l-207.1-12.1
		c-2.9-0.2-5.9,0.2-8.7,1.1L65.2,130.8z"/>
	<g>
		<path fill="#106580" d="M58.3,120.1c-1.1,0-1.9-0.9-1.9-1.9v-16c0-0.5,0.2-1.1,0.6-1.4L115,46.5c6.7-6.3,15.7-9.2,24.8-8l15.7,2
			c1.1,0.1,1.8,1.1,1.7,2.2c-0.1,1.1-1.1,1.8-2.2,1.7l-15.7-2c-7.9-1-15.8,1.5-21.7,7L60.2,103v15.2
			C60.2,119.3,59.3,120.1,58.3,120.1z"/>
		<path fill="#106580" d="M251.6,56.6c-0.1,0-0.2,0-0.2,0l-8.9-1.1c-1.1-0.1-1.8-1.1-1.7-2.2c0.1-1.1,1.1-1.8,2.2-1.7l8.9,1.1
			c1.1,0.1,1.8,1.1,1.7,2.2C253.4,55.9,252.6,56.6,251.6,56.6z"/>
		<path fill="#106580" d="M343.8,68.4c-0.1,0-0.2,0-0.2,0l-9.4-1.2c-1.1-0.1-1.8-1.1-1.7-2.2s1.1-1.8,2.2-1.7l9.4,1.2
			c1.1,0.1,1.8,1.1,1.7,2.2C345.6,67.6,344.8,68.4,343.8,68.4z"/>
		<path fill="#106580" d="M101.3,87.2c-0.6,0-1.2-0.3-1.6-0.8c-0.6-0.9-0.5-2.1,0.4-2.7l18.7-14c4.4-3.2,9.8-4.6,15.3-4.1l34.9,3.5
			c1.1,0.1,1.8,1.1,1.7,2.1c-0.1,1.1-1.1,1.8-2.1,1.7l-34.9-3.5c-4.5-0.5-8.9,0.7-12.6,3.4l-18.6,13.9
			C102.1,87.1,101.7,87.2,101.3,87.2z"/>
		<path fill="#106580" d="M58.3,129.1c-0.8,0-1.6-0.5-1.8-1.3c-0.3-1,0.2-2.1,1.2-2.4l63.7-20.8c3-1,6.2-1.4,9.4-1.2l211.1,12.3
			V78.2c0-1.1,0.9-1.9,1.9-1.9s1.9,0.9,1.9,1.9v41.5l-2.1-0.1l-213.2-12.4c-2.7-0.2-5.4,0.2-7.9,1L58.9,129
			C58.7,129.1,58.5,129.1,58.3,129.1z"/>
		<path fill="#106580" d="M331.1,100.5L331.1,100.5c-0.1,0-0.3,0-0.4,0l-159-12c-2.7-0.2-4.9-2.5-4.9-5.2V61.2
			c0-3.1,2.7-5.6,5.9-5.2l159,20.1c2.6,0.3,4.6,2.6,4.6,5.2v13.9c0,1.4-0.6,2.7-1.5,3.7C333.8,100,332.5,100.5,331.1,100.5z
			 M172,59.8c-0.8,0-1.4,0.6-1.4,1.4v22.1c0,0.7,0.6,1.3,1.3,1.4l159.1,12l0,0c0.4,0,0.7-0.1,1-0.4c0.3-0.3,0.4-0.6,0.4-1V81.4
			c0-0.7-0.5-1.3-1.2-1.4l-159-20.1C172.2,59.9,172.1,59.8,172,59.8z"/>
		<polygon fill="#E4E5E6" points="173.9,81.6 173.9,63.3 329.2,83 329.2,93.3 		"/>
		<g>
			<rect x="103" y="122.1" fill="#DC5F58" width="59.1" height="7.7"/>
			<path fill="#106580" d="M162.1,131.7H103c-1.1,0-1.9-0.9-1.9-1.9v-7.7c0-1.1,0.9-1.9,1.9-1.9h59.1c1.1,0,1.9,0.9,1.9,1.9v7.7
				C164,130.9,163.2,131.7,162.1,131.7z M104.9,127.8h55.2V124h-55.2V127.8z"/>
		</g>
		<path fill="#106580" d="M154.4,124c-1.1,0-1.9-0.9-1.9-1.9v-15.5c0-1.1,0.9-1.9,1.9-1.9s1.9,0.9,1.9,1.9v15.5
			C156.3,123.1,155.4,124,154.4,124z"/>
		<path fill="#106580" d="M110.7,124c-1.1,0-1.9-0.9-1.9-1.9V110c0-1.1,0.9-1.9,1.9-1.9s1.9,0.9,1.9,1.9v12.1
			C112.7,123.1,111.8,124,110.7,124z"/>
		<path fill="#106580" d="M132.3,148.3c-0.1,0-0.1,0-0.2,0L64,141.2v-16.6c0-1.1,0.9-1.9,1.9-1.9s1.9,0.9,1.9,1.9v13.1l62.7,6.5
			v-14.4c0-1.1,0.9-1.9,1.9-1.9s1.9,0.9,1.9,1.9v16.3c0,0.6-0.3,1.2-0.7,1.6C133.4,148.1,132.8,148.3,132.3,148.3z"/>
		<path fill="#106580" d="M132.6,148.3c-1.1,0-1.9-0.9-1.9-1.9c0-1.1,0.8-2,1.9-2l203.2-2.7v-17c0-1.1,0.9-1.9,1.9-1.9
			s1.9,0.9,1.9,1.9v20.9l-1.9,0L132.6,148.3C132.6,148.3,132.6,148.3,132.6,148.3z"/>
		<path fill="#106580" d="M66,111.9c-0.7,0-1.4-0.4-1.7-1.1c-0.5-1-0.1-2.1,0.9-2.6l32-15.7c1.4-0.7,2.3-2.1,2.3-3.7v-9.7
			c0-1.1,0.9-1.9,1.9-1.9s1.9,0.9,1.9,1.9v9.7c0,3-1.8,5.8-4.5,7.2l-32,15.7C66.5,111.9,66.2,111.9,66,111.9z"/>
		<g>
			<g>
				<path fill="#DC5F58" d="M162.9,36c0-0.9,0.7-1.5,1.6-1.4c0.9,0.1,1.6,0.9,1.6,1.8l0.1,10l6,0.8c0.8,0.1,1.5,0.8,1.5,1.6
					c0,0.8-0.6,1.4-1.5,1.2l-7.6-1c-0.9-0.1-1.6-0.9-1.6-1.8L162.9,36z"/>
				<path fill="#DC5F58" d="M180.7,45.1l-0.1-6.8c0-0.9,0.7-1.5,1.6-1.4c0.9,0.1,1.6,0.9,1.6,1.8l0.1,6.7c0,2.3,1.2,3.7,3.2,4
					s3.1-0.8,3.1-3l-0.1-6.8c0-0.9,0.7-1.5,1.6-1.4c0.9,0.1,1.6,0.9,1.6,1.8l0.1,6.7c0,4.4-2.4,6.2-6.4,5.7
					C183.1,51.8,180.7,49.3,180.7,45.1z"/>
				<path fill="#DC5F58" d="M202.1,41.1c0-0.9,0.7-1.5,1.6-1.4l0.3,0c0.8,0.1,1.2,0.5,1.7,1.1l6.3,8.8l-0.1-7.4
					c0-0.9,0.7-1.5,1.6-1.4c0.9,0.1,1.6,0.9,1.6,1.8l0.1,11.4c0,0.9-0.7,1.5-1.6,1.4l-0.1,0c-0.8-0.1-1.2-0.5-1.7-1.1l-6.5-9.1
					l0.1,7.7c0,0.9-0.7,1.5-1.6,1.4c-0.9-0.1-1.6-0.9-1.6-1.8L202.1,41.1z"/>
				<path fill="#DC5F58" d="M223.3,54.6l5-10.7c0.3-0.7,1-1.1,1.9-1l0.2,0c0.9,0.1,1.5,0.7,1.9,1.5l5.2,12c0.1,0.2,0.2,0.5,0.2,0.7
					c0,0.8-0.7,1.4-1.5,1.3c-0.8-0.1-1.3-0.6-1.6-1.3l-1-2.4l-6.4-0.8l-1,2.2c-0.3,0.6-0.8,0.9-1.5,0.8c-0.8-0.1-1.5-0.8-1.5-1.7
					C223.1,55,223.2,54.8,223.3,54.6z M232.3,51.8l-2.1-5l-2,4.5L232.3,51.8z"/>
				<path fill="#DC5F58" d="M257.2,48.2c0-0.9,0.7-1.5,1.6-1.4l4.4,0.6c3.5,0.4,5.6,2.7,5.6,5.7v0c0,3.3-2.6,4.7-5.9,4.3l-2.4-0.3
					l0,2.9c0,0.9-0.7,1.5-1.6,1.4s-1.6-0.9-1.6-1.8L257.2,48.2z M263,54.6c1.6,0.2,2.5-0.6,2.5-1.9v0c0-1.4-1-2.3-2.6-2.5l-2.5-0.3
					l0,4.4L263,54.6z"/>
				<path fill="#DC5F58" d="M274.8,61.2l5-10.7c0.3-0.7,1-1.1,1.9-1l0.2,0c0.9,0.1,1.5,0.7,1.9,1.5l5.2,12c0.1,0.2,0.2,0.5,0.2,0.7
					c0,0.8-0.7,1.4-1.5,1.3c-0.8-0.1-1.3-0.6-1.6-1.3l-1-2.4l-6.4-0.8l-1,2.2c-0.3,0.6-0.8,0.9-1.5,0.8c-0.8-0.1-1.5-0.8-1.5-1.7
					C274.6,61.6,274.7,61.4,274.8,61.2z M283.9,58.4l-2.1-5l-2,4.5L283.9,58.4z"/>
				<path fill="#DC5F58" d="M297,53.3c0-0.9,0.7-1.5,1.6-1.4l5.1,0.6c1.9,0.2,3.3,0.9,4.3,2c0.8,0.9,1.3,2.1,1.3,3.4v0
					c0,2.3-1.1,3.5-2.9,4l2.3,3c0.3,0.4,0.5,0.8,0.5,1.3c0,0.9-0.7,1.4-1.5,1.3c-0.7-0.1-1.2-0.5-1.6-1l-3.2-4.3l-2.6-0.3l0,3.1
					c0,0.9-0.7,1.5-1.6,1.4c-0.9-0.1-1.6-0.9-1.6-1.8L297,53.3z M303.5,59.5c1.6,0.2,2.5-0.5,2.5-1.7v0c0-1.4-1-2.2-2.5-2.4
					l-3.2-0.4l0,4.1L303.5,59.5z"/>
				<path fill="#DC5F58" d="M317.6,55.8c0-0.9,0.7-1.5,1.6-1.4c0.9,0.1,1.6,0.9,1.6,1.8l0,4.8l5.9-5c0.4-0.3,0.8-0.5,1.4-0.4
					c0.9,0.1,1.5,0.9,1.5,1.6c0,0.5-0.2,0.8-0.6,1.1l-4.1,3.3l4.5,6.1c0.3,0.3,0.4,0.7,0.4,1.2c0,0.9-0.7,1.5-1.6,1.3
					c-0.6-0.1-1-0.4-1.4-0.9l-4.2-5.9l-1.8,1.4l0,2.9c0,0.9-0.7,1.5-1.6,1.4c-0.9-0.1-1.6-0.9-1.6-1.8L317.6,55.8z"/>
			</g>
		</g>
		<g>
			<path fill="#FFFFFF" d="M171.9,122.1c-1.1,0-1.9-0.9-1.9-1.9s0.9-1.9,1.9-1.9h0c1.1,0,1.9,0.9,1.9,1.9S172.9,122.1,171.9,122.1z"
				/>
			<path fill="#FFFFFF" d="M320.1,129.4c-1.1,0-1.9-0.9-1.9-1.9s0.9-1.9,1.9-1.9h0c1.1,0,1.9,0.9,1.9,1.9S321.2,129.4,320.1,129.4z
				 M310.9,129c0,0-0.1,0-0.1,0c-1.1-0.1-1.9-1-1.8-2.1c0.1-1.1,1-1.9,2.1-1.8l0,0c1.1,0.1,1.9,1,1.8,2.1
				C312.7,128.2,311.9,129,310.9,129z M301.6,128.5c0,0-0.1,0-0.2,0c-1.1-0.1-1.9-1-1.8-2.1c0.1-1.1,1-1.9,2.1-1.8l0,0
				c1.1,0.1,1.9,1,1.8,2.1C303.5,127.7,302.6,128.5,301.6,128.5z M292.3,128c-1.1,0-1.9-0.9-1.9-1.9s0.9-1.9,1.9-1.9h0
				c1.1,0,1.9,0.9,1.9,1.9S293.4,128,292.3,128z M283.1,127.6c0,0-0.1,0-0.2,0c-1.1-0.1-1.9-1-1.8-2.1c0.1-1.1,1-1.9,2.1-1.8l0,0
				c1.1,0.1,1.9,1,1.8,2.1C284.9,126.8,284.1,127.6,283.1,127.6z M273.8,127.1c0,0-0.1,0-0.1,0c-1.1-0.1-1.9-1-1.8-2.1
				c0.1-1.1,1-1.9,2.1-1.8l0,0c1.1,0.1,1.9,1,1.8,2.1C275.7,126.4,274.8,127.1,273.8,127.1z M264.5,126.7c0,0-0.1,0-0.2,0
				c-1.1-0.1-1.9-1-1.8-2.1c0.1-1.1,1-1.9,2.1-1.8l0,0c1.1,0.1,1.9,1,1.8,2.1C266.4,125.9,265.5,126.7,264.5,126.7z M255.3,126.2
				c-1.1,0-1.9-0.9-1.9-1.9s0.9-1.9,1.9-1.9h0c1.1,0,1.9,0.9,1.9,1.9S256.3,126.2,255.3,126.2z M246,125.8c0,0-0.1,0-0.2,0
				c-1.1-0.1-1.9-1-1.8-2.1c0.1-1.1,1-1.9,2.1-1.8l0,0c1.1,0.1,1.9,1,1.8,2.1C247.9,125,247,125.8,246,125.8z M236.7,125.3
				c0,0-0.1,0-0.1,0c-1.1-0.1-1.9-1-1.8-2.1c0.1-1.1,1-1.9,2.1-1.8l0,0c1.1,0.1,1.9,1,1.8,2.1C238.6,124.5,237.7,125.3,236.7,125.3z
				 M227.5,124.9c-1.1,0-1.9-0.9-1.9-1.9s0.9-1.9,1.9-1.9h0c1.1,0,1.9,0.9,1.9,1.9S228.5,124.9,227.5,124.9z M218.2,124.4
				c0,0-0.1,0-0.1,0c-1.1-0.1-1.9-1-1.8-2.1c0.1-1.1,1-1.9,2.1-1.8l0,0c1.1,0.1,1.9,1,1.8,2.1C220.1,123.6,219.2,124.4,218.2,124.4z
				 M208.9,124c0,0-0.1,0-0.2,0c-1.1-0.1-1.9-1-1.8-2.1c0.1-1.1,1-1.9,2.1-1.8l0,0c1.1,0.1,1.9,1,1.8,2.1
				C210.8,123.2,209.9,124,208.9,124z M199.7,123.5c0,0-0.1,0-0.1,0c-1.1-0.1-1.9-1-1.8-2.1c0.1-1.1,1-1.9,2.1-1.8l0,0
				c1.1,0.1,1.9,1,1.8,2.1C201.5,122.7,200.7,123.5,199.7,123.5z M190.4,123c-1.1,0-1.9-0.9-1.9-1.9s0.9-1.9,1.9-1.9h0
				c1.1,0,1.9,0.9,1.9,1.9S191.5,123,190.4,123z M181.1,122.6c0,0-0.1,0-0.1,0c-1.1-0.1-1.9-1-1.8-2.1c0.1-1.1,1-1.9,2.1-1.8l0,0
				c1.1,0.1,1.9,1,1.8,2.1C183,121.8,182.1,122.6,181.1,122.6z"/>
			<path fill="#FFFFFF" d="M329.4,129.9c-1.1,0-1.9-0.9-1.9-1.9s0.9-1.9,1.9-1.9h0c1.1,0,1.9,0.9,1.9,1.9S330.5,129.9,329.4,129.9z"
				/>
		</g>
		<g>
			<path fill="#106580" d="M171.9,96.9c-1.1,0-1.9-0.9-1.9-1.9s0.9-1.9,1.9-1.9h0c1.1,0,1.9,0.9,1.9,1.9S172.9,96.9,171.9,96.9z"/>
			<path fill="#106580" d="M320.1,107.8c0,0-0.1,0-0.2,0c-1.1-0.1-1.9-1-1.8-2.1c0.1-1.1,1-1.9,2.1-1.8l0,0c1.1,0.1,1.9,1,1.8,2.1
				C322,107,321.2,107.8,320.1,107.8z M310.9,107.1c0,0-0.1,0-0.1,0c-1.1-0.1-1.9-1-1.8-2.1c0.1-1.1,1-1.9,2.1-1.8l0,0
				c1.1,0.1,1.9,1,1.8,2.1C312.7,106.3,311.9,107.1,310.9,107.1z M301.6,106.4c0,0-0.1,0-0.2,0c-1.1-0.1-1.9-1-1.8-2.1
				c0.1-1.1,1-1.9,2.1-1.8l0,0c1.1,0.1,1.9,1,1.8,2.1C303.5,105.7,302.6,106.4,301.6,106.4z M292.3,105.8c0,0-0.1,0-0.1,0
				c-1.1-0.1-1.9-1-1.8-2.1c0.1-1.1,1-1.9,2.1-1.8l0,0c1.1,0.1,1.9,1,1.8,2.1C294.2,105,293.4,105.8,292.3,105.8z M283.1,105.1
				c0,0-0.1,0-0.2,0c-1.1-0.1-1.9-1-1.8-2.1c0.1-1.1,1-1.9,2.1-1.8l0,0c1.1,0.1,1.9,1,1.8,2.1C284.9,104.3,284.1,105.1,283.1,105.1z
				 M273.8,104.4c0,0-0.1,0-0.1,0c-1.1-0.1-1.9-1-1.8-2.1c0.1-1.1,1-1.9,2.1-1.8l0,0c1.1,0.1,1.9,1,1.8,2.1
				C275.7,103.6,274.8,104.4,273.8,104.4z M264.5,103.7c0,0-0.1,0-0.2,0c-1.1-0.1-1.9-1-1.8-2.1c0.1-1.1,1-1.9,2.1-1.8l0,0
				c1.1,0.1,1.9,1,1.8,2.1C266.4,102.9,265.5,103.7,264.5,103.7z M255.3,103c0,0-0.1,0-0.1,0c-1.1-0.1-1.9-1-1.8-2.1
				c0.1-1.1,1-1.9,2.1-1.8l0,0c1.1,0.1,1.9,1,1.8,2.1C257.1,102.2,256.3,103,255.3,103z M246,102.3c0,0-0.1,0-0.2,0
				c-1.1-0.1-1.9-1-1.8-2.1c0.1-1.1,1-1.9,2.1-1.8l0,0c1.1,0.1,1.9,1,1.8,2.1C247.9,101.6,247,102.3,246,102.3z M236.7,101.7
				c0,0-0.1,0-0.1,0c-1.1-0.1-1.9-1-1.8-2.1c0.1-1.1,1-1.9,2.1-1.8l0,0c1.1,0.1,1.9,1,1.8,2.1C238.6,100.9,237.7,101.7,236.7,101.7z
				 M227.5,101c0,0-0.1,0-0.2,0c-1.1-0.1-1.9-1-1.8-2.1c0.1-1.1,1-1.9,2.1-1.8l0,0c1.1,0.1,1.9,1,1.8,2.1
				C229.3,100.2,228.5,101,227.5,101z M218.2,100.3c0,0-0.1,0-0.1,0c-1.1-0.1-1.9-1-1.8-2.1c0.1-1.1,1-1.9,2.1-1.8l0,0
				c1.1,0.1,1.9,1,1.8,2.1C220.1,99.5,219.2,100.3,218.2,100.3z M208.9,99.6c0,0-0.1,0-0.2,0c-1.1-0.1-1.9-1-1.8-2.1
				c0.1-1.1,1-1.9,2.1-1.8l0,0c1.1,0.1,1.9,1,1.8,2.1C210.8,98.8,209.9,99.6,208.9,99.6z M199.7,98.9c0,0-0.1,0-0.1,0
				c-1.1-0.1-1.9-1-1.8-2.1c0.1-1.1,1-1.9,2.1-1.8l0,0c1.1,0.1,1.9,1,1.8,2.1C201.5,98.1,200.7,98.9,199.7,98.9z M190.4,98.2
				c0,0-0.1,0-0.1,0c-1.1-0.1-1.9-1-1.8-2.1c0.1-1.1,1-1.9,2.1-1.8l0,0c1.1,0.1,1.9,1,1.8,2.1C192.3,97.5,191.4,98.2,190.4,98.2z
				 M181.1,97.6c0,0-0.1,0-0.1,0c-1.1-0.1-1.9-1-1.8-2.1c0.1-1.1,1-1.9,2.1-1.8l0,0c1.1,0.1,1.9,1,1.8,2.1
				C183,96.8,182.1,97.6,181.1,97.6z"/>
			<path fill="#106580" d="M329.4,108.5c-0.1,0-0.2,0-0.3,0c-1.1-0.2-1.8-1.1-1.7-2.2c0.2-1.1,1.1-1.8,2.2-1.6l0,0
				c1.1,0.2,1.8,1.1,1.6,2.2C331.2,107.8,330.4,108.5,329.4,108.5z"/>
		</g>
		<path fill="#106580" d="M68.9,117.6c-0.8,0-1.5-0.4-1.8-1.2c-0.4-1,0.1-2.1,1-2.5c1-0.4,2.1,0.1,2.5,1c0.4,1,0,2.1-1,2.5l0,0
			C69.4,117.5,69.2,117.6,68.9,117.6z M77.3,114.2c-0.8,0-1.5-0.5-1.8-1.2c-0.4-1,0.1-2.1,1.1-2.5c1-0.4,2.1,0.1,2.5,1.1
			s-0.1,2.1-1.1,2.5l0,0C77.8,114.1,77.6,114.2,77.3,114.2z M85.7,110.8c-0.8,0-1.5-0.5-1.8-1.2c-0.4-1,0.1-2.1,1.1-2.5
			c1-0.4,2.1,0.1,2.5,1.1c0.4,1-0.1,2.1-1.1,2.5l0,0C86.2,110.7,86,110.8,85.7,110.8z M94.2,107.4c-0.8,0-1.5-0.4-1.8-1.2
			c-0.4-1,0.1-2.1,1-2.5c1-0.4,2.1,0.1,2.5,1s0,2.1-1,2.5l0,0C94.7,107.3,94.4,107.4,94.2,107.4z M102.6,104c-0.8,0-1.5-0.5-1.8-1.2
			c-0.4-1,0.1-2.1,1.1-2.5c1-0.4,2.1,0.1,2.5,1.1c0.4,1-0.1,2.1-1.1,2.5l0,0C103,103.9,102.8,104,102.6,104z"/>
		<rect x="346.8" y="142.2" fill="#106580" width="47.7" height="3.9"/>
		<rect x="5.1" y="138" fill="#106580" width="52.1" height="3.9"/>
		<rect x="49.1" y="148.1" fill="#106580" width="26.6" height="3.9"/>
		<rect x="258.7" y="157.9" fill="#106580" width="63" height="3.9"/>
		<rect x="331.1" y="151.8" fill="#106580" width="25.6" height="3.9"/>
	</g>
</g>
</svg>
