<?xml version="1.0" encoding="utf-8"?>
<!-- Generator: Adobe Illustrator 18.0.0, SVG Export Plug-In . SVG Version: 6.00 Build 0)  -->
<!DOCTYPE svg PUBLIC "-//W3C//DTD SVG 1.1//EN" "http://www.w3.org/Graphics/SVG/1.1/DTD/svg11.dtd">
<svg version="1.1" id="Layer_1" xmlns="http://www.w3.org/2000/svg" xmlns:xlink="http://www.w3.org/1999/xlink" x="0px" y="0px"
	 viewBox="0 0 300 250" enable-background="new 0 0 300 250" xml:space="preserve">
<g>
	<g>
		<g>
			<g>
				<polygon fill="#2F96CC" points="164.8,177.3 144.7,168.4 124.5,177.3 124.5,106.8 164.8,106.8 				"/>
				<path fill="#106580" d="M166.8,180.3l-22.1-9.8l-22.1,9.8v-75.4h44.2V180.3z M144.7,166.2l18.2,8.1v-65.6h-36.4v65.6
					L144.7,166.2z"/>
			</g>
			<g>
				<g>
					<path fill="#DC5F58" d="M176.1,153.2c-7.1-3-14.2-5.9-21.2-8.9c-6.5,3-12.9,5.9-19.2,8.9c-2-14.1-2-28.4,0-42.5
						c13.4,0,26.9,0,40.3,0C174.1,124.8,174.1,139.1,176.1,153.2z"/>
				</g>
				<path fill="#106580" d="M178.5,156.2l-3.1-1.3c-6.7-2.8-13.5-5.7-20.4-8.6c-6,2.8-12.2,5.6-18.4,8.5l-2.4,1.1l-0.4-2.6
					c-2-14.3-2-28.7,0-43l0.2-1.7h44.2L178,111c-2,13.9-2,28,0,41.9L178.5,156.2z M137.5,112.6c-1.6,12.5-1.7,25.1-0.1,37.6
					c5.7-2.7,11.3-5.3,16.8-7.8l0.8-0.4l0.8,0.3c6,2.6,12.1,5.1,18,7.6c-1.5-12.4-1.4-25,0.1-37.4H137.5z"/>
			</g>
		</g>
		<g>
			<g>
				<path fill="#FFFFFF" d="M187.3,87.4c0,3.8-4.5,6.8-5.6,10.2c-1.1,3.5,0.7,8.6-1.5,11.5c-2.2,3-7.6,2.8-10.5,5
					c-2.9,2.1-4.4,7.4-8,8.5c-3.4,1.1-7.7-2.2-11.4-2.2s-8,3.3-11.4,2.2c-3.5-1.1-5-6.4-8-8.5c-3-2.2-8.4-2-10.5-5
					c-2.1-2.9-0.3-8-1.5-11.5c-1.1-3.4-5.6-6.4-5.6-10.2c0-3.8,4.5-6.8,5.6-10.2c1.1-3.5-0.7-8.6,1.5-11.5c2.2-3,7.6-2.8,10.5-5
					c2.9-2.1,4.4-7.4,8-8.5c3.4-1.1,7.7,2.2,11.4,2.2c3.8,0,8-3.3,11.4-2.2c3.5,1.1,5,6.4,8,8.5c3,2.2,8.4,2,10.5,5
					c2.1,2.9,0.3,8,1.5,11.5C182.8,80.6,187.3,83.6,187.3,87.4z"/>
			</g>
			<path fill="#106580" d="M160.2,124.7c-1.9,0-3.7-0.7-5.5-1.3c-1.6-0.6-3.1-1.1-4.4-1.1s-2.8,0.5-4.4,1.1
				c-1.8,0.6-3.6,1.3-5.5,1.3c-0.7,0-1.5-0.1-2.1-0.3c-2.7-0.9-4.3-3.3-5.7-5.4c-0.9-1.4-1.8-2.6-2.8-3.4c-1-0.7-2.5-1.2-4.1-1.6
				c-2.5-0.7-5.2-1.5-6.9-3.8c-1.6-2.2-1.5-5.1-1.4-7.6c0.1-1.7,0.1-3.3-0.3-4.4c-0.4-1.1-1.3-2.3-2.3-3.6c-1.6-2-3.4-4.4-3.4-7.2
				c0-2.9,1.8-5.2,3.4-7.2c1-1.3,1.9-2.5,2.3-3.6c0.4-1.2,0.3-2.8,0.3-4.4c-0.1-2.5-0.2-5.4,1.4-7.6c1.6-2.2,4.4-3,6.9-3.8
				c1.6-0.5,3.1-0.9,4.1-1.6c1-0.7,1.8-2,2.8-3.4c1.4-2.1,3.1-4.6,5.7-5.4c0.7-0.2,1.4-0.3,2.1-0.3c1.9,0,3.7,0.7,5.5,1.3
				c1.6,0.6,3.1,1.1,4.4,1.1s2.8-0.5,4.4-1.1c1.8-0.6,3.6-1.3,5.5-1.3c0.7,0,1.5,0.1,2.1,0.3c2.7,0.9,4.3,3.3,5.7,5.4
				c0.9,1.4,1.8,2.6,2.8,3.4c1,0.7,2.5,1.2,4.1,1.6c2.5,0.7,5.2,1.5,6.9,3.8c1.6,2.2,1.5,5.1,1.4,7.6c-0.1,1.7-0.1,3.3,0.3,4.4
				c0.4,1.1,1.3,2.3,2.3,3.6c1.6,2,3.4,4.4,3.4,7.2c0,2.9-1.8,5.2-3.4,7.2c-1,1.3-1.9,2.5-2.3,3.6c-0.4,1.2-0.3,2.8-0.3,4.4
				c0.1,2.5,0.2,5.4-1.4,7.6c-1.6,2.2-4.4,3-6.9,3.8c-1.6,0.5-3.1,0.9-4.1,1.6c-1,0.7-1.8,2-2.8,3.4c-1.4,2.1-3.1,4.6-5.7,5.4
				C161.7,124.6,161,124.7,160.2,124.7z M150.3,118.4c2,0,3.9,0.7,5.7,1.3c2,0.7,3.9,1.3,5.1,0.9c1.4-0.5,2.5-2.1,3.7-3.9
				c1.1-1.6,2.2-3.2,3.7-4.3c1.5-1.1,3.5-1.7,5.3-2.2c2-0.6,4-1.1,4.8-2.3c0.8-1.1,0.8-3.1,0.7-5.2c-0.1-1.9-0.1-3.9,0.5-5.8
				c0.6-1.8,1.8-3.3,2.9-4.8c1.3-1.7,2.6-3.3,2.6-4.8c0-1.5-1.3-3.1-2.6-4.8c-1.2-1.5-2.4-3-2.9-4.8c-0.6-1.8-0.5-3.8-0.5-5.8
				c0.1-2.1,0.1-4.1-0.7-5.2c-0.8-1.2-2.8-1.7-4.8-2.3c-1.8-0.5-3.8-1.1-5.3-2.2c-1.5-1.1-2.6-2.7-3.7-4.3c-1.2-1.8-2.3-3.4-3.7-3.9
				c-1.2-0.4-3.1,0.2-5.1,0.9c-1.8,0.7-3.7,1.3-5.7,1.3s-3.9-0.7-5.7-1.3c-2-0.7-3.9-1.3-5.1-0.9c-1.4,0.5-2.5,2.1-3.7,3.9
				c-1.1,1.6-2.2,3.2-3.7,4.3c-1.5,1.1-3.5,1.7-5.3,2.2c-2,0.6-4,1.1-4.8,2.3c-0.8,1.1-0.8,3.1-0.7,5.2c0.1,1.9,0.1,3.9-0.5,5.8
				c-0.6,1.8-1.8,3.3-2.9,4.8c-1.3,1.7-2.6,3.3-2.6,4.8c0,1.5,1.3,3.1,2.6,4.8c1.2,1.5,2.4,3,2.9,4.8c0.6,1.8,0.5,3.8,0.5,5.8
				c-0.1,2.1-0.1,4.1,0.7,5.2c0.8,1.2,2.8,1.7,4.8,2.3c1.8,0.5,3.8,1.1,5.3,2.2c1.5,1.1,2.6,2.7,3.7,4.3c1.2,1.8,2.3,3.4,3.7,3.9
				c1.2,0.4,3.1-0.2,5.1-0.9C146.4,119.1,148.3,118.4,150.3,118.4z"/>
		</g>
		<circle fill="#28C7B5" cx="150.3" cy="87.4" r="21.4"/>
		<g>
			<circle fill="#FFFFFF" cx="150.3" cy="87.4" r="10"/>
			<path fill="#106580" d="M150.3,99.3c-6.6,0-11.9-5.4-11.9-11.9s5.4-11.9,11.9-11.9c6.6,0,11.9,5.4,11.9,11.9
				S156.9,99.3,150.3,99.3z M150.3,79.3c-4.4,0-8.1,3.6-8.1,8.1s3.6,8.1,8.1,8.1s8.1-3.6,8.1-8.1S154.8,79.3,150.3,79.3z"/>
		</g>
	</g>
	<polygon fill="#106580" points="90.4,114.4 85.2,117.7 85.7,111.6 80.9,107.7 86.9,106.3 89.1,100.5 92.3,105.8 98.5,106.1 
		94.5,110.8 96.1,116.7 	"/>
	<polygon fill="#106580" points="88.8,64.1 82.8,62.8 87.5,58.8 86.9,52.7 92.1,55.9 97.7,53.4 96.3,59.4 100.4,64 94.3,64.4 
		91.2,69.8 	"/>
	<polygon fill="#106580" points="123.3,27.4 120,22.3 126.1,22.7 130,18 131.4,23.9 137.2,26.2 131.9,29.4 131.6,35.5 126.9,31.5 
		121,33.1 	"/>
	<polygon fill="#106580" points="173.6,25.9 174.9,19.9 178.9,24.5 185,23.9 181.8,29.2 184.3,34.8 178.3,33.3 173.7,37.5 
		173.2,31.3 167.9,28.2 	"/>
	<polygon fill="#106580" points="210.3,60.4 215.4,57 214.9,63.1 219.7,67 213.7,68.5 211.5,74.2 208.3,69 202.2,68.6 206.2,63.9 
		204.6,58 	"/>
	<polygon fill="#106580" points="211.8,110.6 217.8,111.9 213.1,115.9 213.8,122.1 208.5,118.8 202.9,121.3 204.3,115.4 
		200.2,110.8 206.4,110.3 209.4,105 	"/>
</g>
<g>
	<path fill="#106580" d="M64.6,192.7c0-0.9,0.7-1.7,1.7-1.7h0.4c0.7,0,1.2,0.4,1.5,0.9l4.1,6.7l4.1-6.7c0.4-0.6,0.8-0.9,1.5-0.9h0.4
		c0.9,0,1.7,0.7,1.7,1.7v12.2c0,0.9-0.7,1.7-1.7,1.7c-0.9,0-1.7-0.8-1.7-1.7v-7.7l-3,4.6c-0.4,0.5-0.8,0.9-1.4,0.9s-1.1-0.3-1.4-0.9
		l-2.9-4.5v7.7c0,0.9-0.7,1.7-1.7,1.7s-1.7-0.7-1.7-1.7V192.7z"/>
	<path fill="#106580" d="M84.4,198.8L84.4,198.8c0-4.4,3.5-8,8.2-8c4.8,0,8.2,3.5,8.2,7.9v0c0,4.4-3.5,8-8.2,8
		C87.8,206.7,84.4,203.2,84.4,198.8z M97.2,198.8L97.2,198.8c0-2.7-1.9-4.9-4.7-4.9c-2.7,0-4.6,2.2-4.6,4.8v0c0,2.6,1.9,4.8,4.7,4.8
		C95.3,203.6,97.2,201.5,97.2,198.8z"/>
	<path fill="#106580" d="M105.1,192.7c0-0.9,0.7-1.7,1.7-1.7h0.4c0.8,0,1.3,0.4,1.8,1l6.5,8.6v-7.9c0-0.9,0.7-1.7,1.7-1.7
		c0.9,0,1.7,0.7,1.7,1.7v12.3c0,0.9-0.7,1.7-1.7,1.7h-0.1c-0.8,0-1.3-0.4-1.8-1l-6.8-8.9v8.3c0,0.9-0.7,1.7-1.7,1.7
		s-1.7-0.7-1.7-1.7V192.7z"/>
	<path fill="#106580" d="M123.5,199.9v-7.2c0-0.9,0.7-1.7,1.7-1.7c0.9,0,1.7,0.7,1.7,1.7v7.2c0,2.5,1.3,3.8,3.3,3.8
		c2.1,0,3.3-1.3,3.3-3.7v-7.3c0-0.9,0.7-1.7,1.7-1.7s1.7,0.7,1.7,1.7v7.1c0,4.7-2.6,7-6.8,7C126.1,206.7,123.5,204.4,123.5,199.9z"
		/>
	<path fill="#106580" d="M141.7,192.7c0-0.9,0.7-1.7,1.7-1.7h0.4c0.7,0,1.2,0.4,1.5,0.9l4.1,6.7l4.1-6.7c0.4-0.6,0.8-0.9,1.5-0.9
		h0.4c0.9,0,1.7,0.7,1.7,1.7v12.2c0,0.9-0.7,1.7-1.7,1.7c-0.9,0-1.7-0.8-1.7-1.7v-7.7l-3,4.6c-0.4,0.5-0.8,0.9-1.4,0.9
		s-1.1-0.3-1.4-0.9l-2.9-4.5v7.7c0,0.9-0.7,1.7-1.7,1.7s-1.7-0.7-1.7-1.7V192.7z"/>
	<path fill="#106580" d="M162.1,204.8v-12c0-0.9,0.7-1.7,1.7-1.7h8.5c0.8,0,1.5,0.7,1.5,1.5s-0.7,1.5-1.5,1.5h-6.9v3.1h5.9
		c0.8,0,1.5,0.7,1.5,1.5s-0.7,1.5-1.5,1.5h-5.9v3.2h7c0.8,0,1.5,0.7,1.5,1.5s-0.7,1.5-1.5,1.5h-8.6
		C162.9,206.5,162.1,205.7,162.1,204.8z"/>
	<path fill="#106580" d="M178.2,192.7c0-0.9,0.7-1.7,1.7-1.7h0.4c0.8,0,1.3,0.4,1.8,1l6.5,8.6v-7.9c0-0.9,0.7-1.7,1.7-1.7
		c0.9,0,1.7,0.7,1.7,1.7v12.3c0,0.9-0.7,1.7-1.7,1.7h-0.1c-0.8,0-1.3-0.4-1.8-1l-6.8-8.9v8.3c0,0.9-0.7,1.7-1.7,1.7
		s-1.7-0.7-1.7-1.7V192.7z"/>
	<path fill="#106580" d="M200.5,194.2h-3.3c-0.9,0-1.6-0.7-1.6-1.6s0.7-1.6,1.6-1.6h9.9c0.9,0,1.6,0.7,1.6,1.6s-0.7,1.6-1.6,1.6
		h-3.3v10.7c0,0.9-0.7,1.7-1.7,1.7c-0.9,0-1.7-0.7-1.7-1.7V194.2z"/>
	<path fill="#106580" d="M211.1,198.8L211.1,198.8c0-4.4,3.5-8,8.2-8c4.8,0,8.2,3.5,8.2,7.9v0c0,4.4-3.5,8-8.2,8
		C214.5,206.7,211.1,203.2,211.1,198.8z M224,198.8L224,198.8c0-2.7-1.9-4.9-4.7-4.9c-2.7,0-4.6,2.2-4.6,4.8v0
		c0,2.6,1.9,4.8,4.7,4.8C222.1,203.6,224,201.5,224,198.8z"/>
	<path fill="#106580" d="M11.1,219.4c0-0.9,0.7-1.7,1.7-1.7s1.7,0.7,1.7,1.7v4.5h6.2v-4.5c0-0.9,0.7-1.7,1.7-1.7
		c0.9,0,1.7,0.7,1.7,1.7v12.3c0,0.9-0.7,1.7-1.7,1.7c-0.9,0-1.7-0.7-1.7-1.7v-4.6h-6.2v4.6c0,0.9-0.7,1.7-1.7,1.7s-1.7-0.7-1.7-1.7
		V219.4z"/>
	<path fill="#106580" d="M29.3,219.4c0-0.9,0.7-1.7,1.7-1.7c0.9,0,1.7,0.7,1.7,1.7v12.3c0,0.9-0.7,1.7-1.7,1.7
		c-0.9,0-1.7-0.7-1.7-1.7V219.4z"/>
	<path fill="#106580" d="M37.5,231.6c-0.4-0.3-0.6-0.7-0.6-1.3c0-0.9,0.7-1.6,1.6-1.6c0.4,0,0.7,0.2,1,0.3c1.2,0.9,2.4,1.4,3.9,1.4
		c1.4,0,2.2-0.5,2.2-1.5v0c0-0.9-0.5-1.3-3.1-2c-3.1-0.8-5.1-1.7-5.1-4.7v0c0-2.8,2.2-4.6,5.4-4.6c1.9,0,3.5,0.5,4.9,1.4
		c0.4,0.2,0.7,0.7,0.7,1.3c0,0.9-0.7,1.6-1.6,1.6c-0.3,0-0.6-0.1-0.9-0.2c-1.1-0.7-2.2-1-3.2-1c-1.3,0-2,0.6-2,1.3v0
		c0,1,0.7,1.3,3.3,2c3.1,0.8,4.9,1.9,4.9,4.6v0c0,3.1-2.3,4.8-5.7,4.8C41.3,233.5,39.3,232.9,37.5,231.6z"/>
	<path fill="#106580" d="M56.5,221h-3.3c-0.9,0-1.6-0.7-1.6-1.6s0.7-1.6,1.6-1.6h9.9c0.9,0,1.6,0.7,1.6,1.6S64,221,63.2,221h-3.3
		v10.7c0,0.9-0.7,1.7-1.7,1.7c-0.9,0-1.7-0.7-1.7-1.7V221z"/>
	<path fill="#106580" d="M67.2,225.6L67.2,225.6c0-4.4,3.5-8,8.2-8c4.8,0,8.2,3.5,8.2,7.9v0c0,4.4-3.5,8-8.2,8
		C70.6,233.5,67.2,230,67.2,225.6z M80,225.6L80,225.6c0-2.7-1.9-4.9-4.7-4.9c-2.7,0-4.6,2.2-4.6,4.8v0c0,2.6,1.9,4.8,4.7,4.8
		C78.1,230.4,80,228.3,80,225.6z M74.4,216c0-0.2,0.1-0.4,0.2-0.6l1.2-1.9c0.3-0.5,0.7-0.7,1.3-0.7c0.8,0,1.9,0.5,1.9,1
		c0,0.3-0.2,0.6-0.4,0.8l-1.4,1.3c-0.6,0.6-1.2,0.7-1.9,0.7C74.8,216.6,74.4,216.3,74.4,216z"/>
	<path fill="#106580" d="M87.9,219.6c0-0.9,0.7-1.7,1.7-1.7h5.3c2,0,3.5,0.5,4.5,1.6c0.9,0.9,1.3,2.1,1.3,3.5v0
		c0,2.4-1.2,3.9-3.1,4.7l2.4,2.9c0.3,0.4,0.5,0.8,0.5,1.3c0,0.9-0.8,1.6-1.6,1.6c-0.8,0-1.3-0.4-1.7-0.9l-3.3-4.2h-2.7v3.4
		c0,0.9-0.7,1.7-1.7,1.7s-1.7-0.7-1.7-1.7V219.6z M94.7,225.3c1.6,0,2.6-0.9,2.6-2.2v0c0-1.5-1-2.2-2.7-2.2h-3.4v4.4H94.7z"/>
	<path fill="#106580" d="M105.2,219.4c0-0.9,0.7-1.7,1.7-1.7c0.9,0,1.7,0.7,1.7,1.7v12.3c0,0.9-0.7,1.7-1.7,1.7
		c-0.9,0-1.7-0.7-1.7-1.7V219.4z"/>
	<path fill="#106580" d="M113.1,225.6L113.1,225.6c0-4.4,3.3-8,8-8c2.3,0,3.9,0.6,5.1,1.6c0.4,0.3,0.7,0.7,0.7,1.3
		c0,0.9-0.7,1.7-1.7,1.7c-0.5,0-0.8-0.2-1-0.3c-0.9-0.7-1.9-1.1-3.1-1.1c-2.6,0-4.5,2.2-4.5,4.8v0c0,2.6,1.8,4.8,4.5,4.8
		c1.4,0,2.4-0.4,3.3-1.2c0.3-0.2,0.6-0.4,1-0.4c0.9,0,1.6,0.7,1.6,1.6c0,0.5-0.3,0.9-0.6,1.2c-1.4,1.2-3,1.9-5.5,1.9
		C116.5,233.5,113.1,230,113.1,225.6z"/>
	<path fill="#106580" d="M130.2,225.6L130.2,225.6c0-4.4,3.5-8,8.2-8c4.8,0,8.2,3.5,8.2,7.9v0c0,4.4-3.5,8-8.2,8
		C133.6,233.5,130.2,230,130.2,225.6z M143.1,225.6L143.1,225.6c0-2.7-1.9-4.9-4.7-4.9c-2.7,0-4.6,2.2-4.6,4.8v0
		c0,2.6,1.9,4.8,4.7,4.8C141.2,230.4,143.1,228.3,143.1,225.6z"/>
	<path fill="#106580" d="M158.9,219.5c0-0.9,0.7-1.7,1.7-1.7h0.4c0.8,0,1.3,0.4,1.8,1l6.5,8.6v-7.9c0-0.9,0.7-1.7,1.7-1.7
		c0.9,0,1.7,0.7,1.7,1.7v12.3c0,0.9-0.7,1.7-1.7,1.7h-0.1c-0.8,0-1.3-0.4-1.8-1l-6.8-8.9v8.3c0,0.9-0.7,1.7-1.7,1.7
		s-1.7-0.7-1.7-1.7V219.5z"/>
	<path fill="#106580" d="M176.7,231.1l5.4-12.1c0.4-0.8,1.1-1.3,2-1.3h0.2c0.9,0,1.6,0.5,2,1.3l5.4,12.1c0.1,0.2,0.2,0.5,0.2,0.7
		c0,0.9-0.7,1.6-1.6,1.6c-0.8,0-1.3-0.5-1.6-1.2l-1-2.4h-6.8l-1.1,2.5c-0.3,0.7-0.9,1.1-1.6,1.1c-0.9,0-1.6-0.7-1.6-1.6
		C176.5,231.6,176.6,231.3,176.7,231.1z M186.2,226.8l-2.1-5.1l-2.1,5.1H186.2z"/>
	<path fill="#106580" d="M194.5,225.6L194.5,225.6c0-4.4,3.3-8,8-8c2.3,0,3.9,0.6,5.1,1.6c0.4,0.3,0.7,0.7,0.7,1.3
		c0,0.9-0.7,1.7-1.7,1.7c-0.5,0-0.8-0.2-1-0.3c-0.9-0.7-1.9-1.1-3.1-1.1c-2.6,0-4.5,2.2-4.5,4.8v0c0,2.6,1.8,4.8,4.5,4.8
		c1.4,0,2.4-0.4,3.3-1.2c0.3-0.2,0.6-0.4,1-0.4c0.9,0,1.6,0.7,1.6,1.6c0,0.5-0.3,0.9-0.6,1.2c-1.4,1.2-3,1.9-5.5,1.9
		C197.9,233.5,194.5,230,194.5,225.6z"/>
	<path fill="#106580" d="M212.9,219.4c0-0.9,0.7-1.7,1.7-1.7c0.9,0,1.7,0.7,1.7,1.7v12.3c0,0.9-0.7,1.7-1.7,1.7
		c-0.9,0-1.7-0.7-1.7-1.7V219.4z"/>
	<path fill="#106580" d="M220.8,225.6L220.8,225.6c0-4.4,3.5-8,8.2-8c4.8,0,8.2,3.5,8.2,7.9v0c0,4.4-3.5,8-8.2,8
		C224.2,233.5,220.8,230,220.8,225.6z M233.6,225.6L233.6,225.6c0-2.7-1.9-4.9-4.7-4.9c-2.7,0-4.6,2.2-4.6,4.8v0
		c0,2.6,1.9,4.8,4.7,4.8C231.7,230.4,233.6,228.3,233.6,225.6z"/>
	<path fill="#106580" d="M241.5,219.5c0-0.9,0.7-1.7,1.7-1.7h0.4c0.8,0,1.3,0.4,1.8,1l6.5,8.6v-7.9c0-0.9,0.7-1.7,1.7-1.7
		c0.9,0,1.7,0.7,1.7,1.7v12.3c0,0.9-0.7,1.7-1.7,1.7h-0.1c-0.8,0-1.3-0.4-1.8-1l-6.8-8.9v8.3c0,0.9-0.7,1.7-1.7,1.7
		s-1.7-0.7-1.7-1.7V219.5z"/>
	<path fill="#106580" d="M259.3,231.1l5.4-12.1c0.4-0.8,1.1-1.3,2-1.3h0.2c0.9,0,1.6,0.5,2,1.3l5.4,12.1c0.1,0.2,0.2,0.5,0.2,0.7
		c0,0.9-0.7,1.6-1.6,1.6c-0.8,0-1.3-0.5-1.6-1.2l-1-2.4h-6.8l-1.1,2.5c-0.3,0.7-0.9,1.1-1.6,1.1c-0.9,0-1.6-0.7-1.6-1.6
		C259.1,231.6,259.2,231.3,259.3,231.1z M268.8,226.8l-2.1-5.1l-2.1,5.1H268.8z"/>
	<path fill="#106580" d="M278.3,219.4c0-0.9,0.7-1.7,1.7-1.7s1.7,0.7,1.7,1.7v10.8h6.3c0.9,0,1.5,0.7,1.5,1.5s-0.7,1.5-1.5,1.5h-8
		c-0.9,0-1.7-0.7-1.7-1.7V219.4z"/>
</g>
</svg>
