<?xml version="1.0" encoding="utf-8"?>
<!-- Generator: Adobe Illustrator 18.0.0, SVG Export Plug-In . SVG Version: 6.00 Build 0)  -->
<!DOCTYPE svg PUBLIC "-//W3C//DTD SVG 1.1//EN" "http://www.w3.org/Graphics/SVG/1.1/DTD/svg11.dtd">
<svg version="1.1" id="Layer_1" xmlns="http://www.w3.org/2000/svg" xmlns:xlink="http://www.w3.org/1999/xlink" x="0px" y="0px"
	 viewBox="0 0 100 100" enable-background="new 0 0 100 100" xml:space="preserve">
<g>
	<g>
		<ellipse fill="#FFFFFF" cx="49.9" cy="50.9" rx="43.3" ry="42.2"/>
		<path fill="#E4E4E4" d="M49.9,8.6c23.9,0,43.3,18.9,43.3,42.2c0,23.3-19.4,42.2-43.3,42.2S6.5,74.2,6.5,50.9
			C6.5,27.6,25.9,8.6,49.9,8.6 M49.9,7.4C25.3,7.4,5.2,26.9,5.2,50.9s20,43.5,44.6,43.5s44.6-19.5,44.6-43.5S74.5,7.4,49.9,7.4
			L49.9,7.4z"/>
	</g>
	<g>
		<path fill="#106584" d="M73.4,70.4c-0.4,0-0.8-0.1-1.2-0.4L26.5,29.8c-0.7-0.7-0.8-1.8-0.2-2.5c0.7-0.7,1.8-0.8,2.5-0.2l45.7,40.2
			c0.7,0.7,0.8,1.8,0.2,2.5C74.4,70.2,73.9,70.4,73.4,70.4z"/>
		<path fill="#106584" d="M48,68.8H25.4c-1,0-1.8-0.8-1.8-1.8s0.8-1.8,1.8-1.8h21l19.4-21.6h14.5c1,0,1.8,0.8,1.8,1.8
			s-0.8,1.8-1.8,1.8H67.4L48,68.8z"/>
		<path fill="#106584" d="M38,78.2c-1,0-1.8-0.8-1.8-1.8V25.3c0-1,0.8-1.8,1.8-1.8s1.8,0.8,1.8,1.8v51.1C39.8,77.4,39,78.2,38,78.2z
			"/>
		<g>
			<circle fill="#28C7B5" cx="38" cy="67" r="2.3"/>
			<path fill="#106584" d="M38,64.7c1.3,0,2.3,1,2.3,2.3c0,1.3-1,2.3-2.3,2.3s-2.3-1-2.3-2.3C35.7,65.8,36.7,64.7,38,64.7 M38,62.3
				c-2.6,0-4.7,2.1-4.7,4.7c0,2.6,2.1,4.7,4.7,4.7c2.6,0,4.7-2.1,4.7-4.7C42.7,64.4,40.6,62.3,38,62.3L38,62.3z"/>
		</g>
		<g>
			<circle fill="#F7F7F7" cx="57.9" cy="54.8" r="2.3"/>
			<path fill="#106584" d="M57.9,52.5c1.3,0,2.3,1,2.3,2.3c0,1.3-1,2.3-2.3,2.3s-2.3-1-2.3-2.3C55.6,53.5,56.6,52.5,57.9,52.5
				 M57.9,50.1c-2.6,0-4.7,2.1-4.7,4.7c0,2.6,2.1,4.7,4.7,4.7c2.6,0,4.7-2.1,4.7-4.7C62.6,52.2,60.5,50.1,57.9,50.1L57.9,50.1z"/>
		</g>
		<g>
			<circle fill="#DC5F58" cx="66.8" cy="45.4" r="2.3"/>
			<path fill="#106584" d="M66.8,43.1c1.3,0,2.3,1,2.3,2.3s-1,2.3-2.3,2.3c-1.3,0-2.3-1-2.3-2.3S65.5,43.1,66.8,43.1 M66.8,40.7
				c-2.6,0-4.7,2.1-4.7,4.7c0,2.6,2.1,4.7,4.7,4.7c2.6,0,4.7-2.1,4.7-4.7C71.5,42.8,69.4,40.7,66.8,40.7L66.8,40.7z"/>
		</g>
		<g>
			<circle fill="#F7F7F7" cx="38" cy="37" r="2.3"/>
			<path fill="#106584" d="M38,34.7c1.3,0,2.3,1,2.3,2.3c0,1.3-1,2.3-2.3,2.3s-2.3-1-2.3-2.3C35.7,35.8,36.7,34.7,38,34.7 M38,32.3
				c-2.6,0-4.7,2.1-4.7,4.7c0,2.6,2.1,4.7,4.7,4.7c2.6,0,4.7-2.1,4.7-4.7C42.7,34.4,40.6,32.3,38,32.3L38,32.3z"/>
		</g>
	</g>
</g>
</svg>
