<?xml version="1.0" encoding="utf-8"?>
<!-- Generator: Adobe Illustrator 18.0.0, SVG Export Plug-In . SVG Version: 6.00 Build 0)  -->
<!DOCTYPE svg PUBLIC "-//W3C//DTD SVG 1.1//EN" "http://www.w3.org/Graphics/SVG/1.1/DTD/svg11.dtd">
<svg version="1.1" id="Layer_1" xmlns="http://www.w3.org/2000/svg" xmlns:xlink="http://www.w3.org/1999/xlink" x="0px" y="0px"
	 viewBox="0 0 100 100" enable-background="new 0 0 100 100" xml:space="preserve">
<g>
	<g>
		<ellipse fill="#FFFFFF" cx="49.9" cy="50.9" rx="44.2" ry="43.1"/>
		<path fill="#E4E4E4" d="M49.9,7.8c24.4,0,44.2,19.3,44.2,43.1S74.3,94,49.9,94S5.6,74.7,5.6,50.9S25.4,7.8,49.9,7.8 M49.9,6.5
			C24.8,6.5,4.3,26.4,4.3,50.9s20.4,44.4,45.5,44.4s45.5-19.9,45.5-44.4S75,6.5,49.9,6.5L49.9,6.5z"/>
	</g>
	<g>
		<g>
			<path fill="#106584" d="M73.3,64.8H26.4v-34c0-4,3.2-7.2,7.2-7.2h32.4c4,0,7.2,3.2,7.2,7.2V64.8z M30.1,61.1h39.5V30.8
				c0-2-1.6-3.5-3.5-3.5H33.6c-2,0-3.5,1.6-3.5,3.5V61.1z"/>
			<g>
				<g>
					<g>
						<path fill="#B9B9B9" d="M64.4,49.3c0,0-9.1,1.5-14.5,1.5c-5.5,0-14.5-1.5-14.5-1.5v-15c0-0.6,0.5-1.1,1.1-1.1h26.7
							c0.6,0,1.1,0.5,1.1,1.1V49.3z"/>
					</g>
				</g>
			</g>
		</g>
		<g>
			<path fill="#106584" d="M27.6,83.5c-0.4,0-0.8-0.1-1.2-0.4c-0.8-0.7-0.9-1.8-0.2-2.6l11.7-13.8c0.7-0.8,1.8-0.9,2.6-0.2
				c0.8,0.7,0.9,1.8,0.2,2.6L29.1,82.8C28.7,83.3,28.2,83.5,27.6,83.5z"/>
			<path fill="#106584" d="M72.1,83.5c-0.5,0-1-0.2-1.4-0.6L58.9,69.1c-0.7-0.8-0.6-1.9,0.2-2.6c0.8-0.7,1.9-0.6,2.6,0.2l11.8,13.8
				c0.7,0.8,0.6,1.9-0.2,2.6C72.9,83.3,72.5,83.5,72.1,83.5z"/>
		</g>
		<path fill="#106584" d="M63.8,74H35.9c-1,0-1.8-0.8-1.8-1.8s0.8-1.8,1.8-1.8h27.9c1,0,1.8,0.8,1.8,1.8S64.8,74,63.8,74z"/>
		<path fill="#106584" d="M68.9,80.2H30.8c-1,0-1.8-0.8-1.8-1.8s0.8-1.8,1.8-1.8h38.1c1,0,1.8,0.8,1.8,1.8S69.9,80.2,68.9,80.2z"/>
		<g>
			<rect x="35.4" y="54.4" fill="#DC5F58" width="3.7" height="3.2"/>
			<rect x="40.7" y="54.4" fill="#2F96CC" width="3.7" height="3.2"/>
			<rect x="55.3" y="54.4" fill="#2F96CC" width="3.7" height="3.2"/>
			<rect x="60.7" y="54.4" fill="#DC5F58" width="3.7" height="3.2"/>
		</g>
		<path fill="#106584" d="M53,31.3h-6.3c-0.3,0-0.6-0.3-0.6-0.6s0.3-0.6,0.6-0.6H53c0.3,0,0.6,0.3,0.6,0.6S53.4,31.3,53,31.3z"/>
		<path fill="#106584" d="M59,20.7H40.7c-0.3,0-0.6-0.3-0.6-0.6s0.3-0.6,0.6-0.6H59c0.3,0,0.6,0.3,0.6,0.6S59.3,20.7,59,20.7z"/>
		<g>
			<rect x="43.8" y="20.1" fill="#106584" width="1.2" height="3"/>
			<rect x="54.7" y="20.1" fill="#106584" width="1.2" height="3"/>
		</g>
	</g>
</g>
</svg>
